<?xml version="1.0" standalone="no"?>
<!DOCTYPE svg PUBLIC "-//W3C//DTD SVG 1.1//EN" "http://www.w3.org/Graphics/SVG/1.1/DTD/svg11.dtd" >
<svg xmlns="http://www.w3.org/2000/svg">
<metadata>
This is a custom SVG webfont generated by Font Squirrel.
Copyright   : Copyright c 2011 Admix Designs httpwwwadmixdesignscom with Reserved Font Name Squada
Designer    : Joe Prince
Foundry     : Joe Prince
Foundry URL : httpwwwadmixdesignscom
</metadata>
<defs>
<font id="SquadaOneRegular" horiz-adv-x="925" >
<font-face units-per-em="2048" ascent="1638" descent="-410" />
<missing-glyph horiz-adv-x="413" />
<glyph unicode=" "  horiz-adv-x="413" />
<glyph unicode="&#x09;" horiz-adv-x="413" />
<glyph unicode="&#xa0;" horiz-adv-x="413" />
<glyph unicode="!" horiz-adv-x="528" d="M121 127q0 61 43 104t104.5 43t104.5 -43t43 -104t-43 -104t-104.5 -43t-104.5 43t-43 104zM129 1325h274l-34 -936h-205z" />
<glyph unicode="&#x22;" horiz-adv-x="770" d="M106 1325h236l-27 -424h-184zM428 1325h236l-27 -424h-184z" />
<glyph unicode="#" horiz-adv-x="1009" d="M90 285v209h127v196h-127v209h127v215h209v-215h154v215h208v-215h125v-209h-125v-196h125v-209h-125v-285h-208v285h-154v-285h-209v285h-127zM426 494h154v196h-154v-196z" />
<glyph unicode="$" horiz-adv-x="954" d="M102 250v137h242v-172q0 -16 11.5 -28.5t27.5 -12.5h55v383h-82q-254 0 -254 270v248q0 270 254 271h82v106h76v-106h70q254 0 254 -271v-98h-242v131q0 16 -11.5 28.5t-27.5 12.5h-43v-363h84q254 -4 254 -270v-266q0 -270 -254 -270h-84v-179h-76v179h-82 q-254 0 -254 270zM346 827q0 -16 11.5 -28.5t27.5 -12.5h53v363h-53q-16 0 -27.5 -12.5t-11.5 -28.5v-281zM514 174h57q16 0 27.5 12.5t11.5 28.5v301q0 16 -11 28.5t-28 12.5h-57v-383z" />
<glyph unicode="%" horiz-adv-x="1562" d="M72 922v153q0 270 254 271h49q254 0 254 -271v-153q0 -270 -254 -271h-49q-254 1 -254 271zM279 0l804 1325h205l-805 -1325h-204zM281 819q0 -16 11 -28.5t27 -12.5h64q16 0 27.5 12.5t11.5 28.5v361q0 16 -11.5 28.5t-27.5 12.5h-64q-16 0 -27 -12.5t-11 -28.5v-361z M934 250v153q0 270 254 271h49q254 0 254 -271v-153q0 -270 -254 -270h-49q-254 0 -254 270zM1143 147q0 -16 11 -28.5t28 -12.5h63q16 0 27.5 12.5t11.5 28.5v361q0 16 -11 28.5t-28 12.5h-63q-16 0 -27.5 -12.5t-11.5 -28.5v-361z" />
<glyph unicode="&#x26;" horiz-adv-x="933" d="M94 250v158q0 164 96 231q-84 61 -84 221v135q0 270 254 271h218q254 0 253 -271v-57h-256v63q0 16 -11 28.5t-27 12.5h-138q-16 0 -27.5 -12t-11.5 -29v-217q0 -16 11.5 -28.5t27.5 -12.5h506v-221h-80v-272q0 -270 -254 -270h-223q-254 0 -254 270zM348 238 q0 -16 11.5 -28.5t27.5 -12.5h162q16 0 27.5 12t11.5 29v284h-201q-16 0 -27.5 -12t-11.5 -29v-243z" />
<glyph unicode="'" horiz-adv-x="452" d="M106 1325h236l-27 -424h-184z" />
<glyph unicode="(" horiz-adv-x="520" d="M61 631.5q0 412.5 164 783.5h240q-174 -342 -174 -784.5t184 -796.5h-239q-175 385 -175 797.5z" />
<glyph unicode=")" horiz-adv-x="548" d="M61 -166q184 354 184.5 796.5t-173.5 784.5h239q164 -371 164 -783.5t-174 -797.5h-240z" />
<glyph unicode="*" horiz-adv-x="794" d="M78 883l205 100l-205 102l80 138l190 -127l-14 229h155l-14 -231l193 129l77 -138l-204 -102l204 -100l-77 -138l-193 127l14 -227h-155l14 225l-190 -125z" />
<glyph unicode="+" horiz-adv-x="1013" d="M115 539v204h278v332h232v-332h278v-204h-278v-334h-232v334h-278z" />
<glyph unicode="," horiz-adv-x="442" d="M86 -297l88 418h244l-144 -418h-188z" />
<glyph unicode="-" horiz-adv-x="923" d="M115 489v220h698v-220h-698z" />
<glyph unicode="." horiz-adv-x="520" d="M121 127q0 61 43 104t104.5 43t104.5 -43t43 -104t-43 -104t-104.5 -43t-104.5 43t-43 104z" />
<glyph unicode="/" horiz-adv-x="610" d="M-86 -147l580 1527h219l-580 -1527h-219z" />
<glyph unicode="0" horiz-adv-x="927" d="M102 250v825q0 270 254 271h244q254 0 254 -271v-825q0 -270 -254 -270h-244q-254 0 -254 270zM381 217q0 -16 11 -28.5t28 -12.5h117q16 0 27 12.5t11 28.5v893q0 16 -11 28.5t-27 12.5h-117q-16 0 -27.5 -12.5t-11.5 -28.5v-893z" />
<glyph unicode="1" horiz-adv-x="530" d="M127 -2v1325h279v-1325h-279z" />
<glyph unicode="2" horiz-adv-x="950" d="M106 977v98q0 270 254 271h228q254 0 254 -271v-309q0 -270 -254 -270h-166q-16 0 -27.5 -12.5t-11.5 -28.5v-219h442v-236h-704v477q0 270 254 271h164q16 0 27.5 12t11.5 28v293q0 16 -11.5 28.5t-27.5 12.5h-121q-16 0 -27.5 -12t-11.5 -29v-104h-273z" />
<glyph unicode="3" horiz-adv-x="931" d="M94 250v108h256v-120q0 -16 11.5 -28.5t27.5 -12.5h162q16 0 27.5 12t11.5 29v282q0 16 -11.5 28.5t-27.5 12.5h-211v221h199q16 0 27.5 12.5t11.5 28.5v258q0 16 -11.5 28.5t-27.5 12.5h-138q-16 0 -27.5 -12t-11.5 -29v-131h-256v125q0 270 254 271h218q254 0 253 -271 v-176q0 -160 -83 -221q96 -68 96 -232v-196q0 -270 -254 -270h-242q-254 0 -254 270z" />
<glyph unicode="4" horiz-adv-x="956" d="M104 793v532h254v-520q0 -16 11.5 -28.5t27.5 -12.5h162q16 0 27.5 12t11.5 29v520h256v-1325h-256v522h-240q-254 1 -254 271z" />
<glyph unicode="5" horiz-adv-x="948" d="M92 848v477h696v-219h-434v-236q0 -16 11.5 -28.5t27.5 -12.5h195q254 0 254 -270v-309q0 -270 -254 -270h-228q-254 0 -254 270v98h273v-104q0 -16 11 -28.5t28 -12.5h121q16 0 27.5 12t11.5 29v293q0 16 -11.5 28.5t-27.5 12.5h-193q-254 0 -254 270z" />
<glyph unicode="6" horiz-adv-x="954" d="M115 250v825q0 270 254 271h221q254 0 254 -271v-98h-262v104q0 16 -11.5 28.5t-27.5 12.5h-133q-16 0 -27.5 -12t-11.5 -29v-305q55 27 137 27h102q254 0 254 -271v-282q0 -270 -254 -270h-241q-254 0 -254 270zM371 272q0 -16 11 -28.5t28 -12.5h161q16 0 27.5 12.5 t11.5 28.5v238q0 16 -11 28.5t-28 12.5h-161q-16 0 -27.5 -12.5t-11.5 -28.5v-238z" />
<glyph unicode="7" horiz-adv-x="862" d="M100 1106v219h676l-274 -1325h-260l215 1106h-357z" />
<glyph unicode="8" horiz-adv-x="960" d="M109 250v196q0 164 96 232q-84 61 -84 221v176q0 270 254 271h217q254 0 254 -271v-176q0 -160 -84 -221q96 -68 96 -232v-196q0 -270 -254 -270h-242q-253 0 -253 270zM365 244q0 -16 11 -28.5t27 -12.5h162q16 0 27.5 12t11.5 29v272q0 16 -11 28.5t-28 12.5h-162 q-16 0 -27 -12.5t-11 -28.5v-272zM377 825q0 -16 11 -28.5t28 -12.5h137q16 0 27.5 12.5t11.5 28.5v250q0 16 -11.5 28.5t-27.5 12.5h-137q-16 0 -27.5 -12t-11.5 -29v-250z" />
<glyph unicode="9" horiz-adv-x="931" d="M88 793v282q0 270 254 271h242q254 0 254 -271v-825q0 -270 -254 -270h-222q-254 0 -253 270v98h262v-104q0 -16 11 -28.5t28 -12.5h133q16 0 27.5 12t11.5 29v305q-55 -27 -138 -27h-102q-254 1 -254 271zM342 815q0 -16 11.5 -28.5t27.5 -12.5h162q16 0 27.5 12.5 t11.5 28.5v238q0 16 -11.5 28.5t-27.5 12.5h-162q-16 0 -27.5 -12.5t-11.5 -28.5v-238z" />
<glyph unicode=":" horiz-adv-x="520" d="M121 127q0 61 43 104t104.5 43t104.5 -43t43 -104t-43 -104t-104.5 -43t-104.5 43t-43 104zM121 833.5q0 61.5 43 104.5t104.5 43t104.5 -43t43 -104.5t-43 -104.5t-104.5 -43t-104.5 43t-43 104.5z" />
<glyph unicode=";" horiz-adv-x="520" d="M74 -297l88 418h244l-144 -418h-188zM121 833.5q0 61.5 43 104.5t104.5 43t104.5 -43t43 -104.5t-43 -104.5t-104.5 -43t-104.5 43t-43 104.5z" />
<glyph unicode="&#x3c;" horiz-adv-x="854" d="M102 522v209l695 375v-242l-471 -239l471 -240v-238z" />
<glyph unicode="=" horiz-adv-x="976" d="M115 293v219h751v-219h-751zM115 686v219h751v-219h-751z" />
<glyph unicode="&#x3e;" horiz-adv-x="854" d="M90 147v238l471 240l-471 239v242l694 -375v-209z" />
<glyph unicode="?" horiz-adv-x="866" d="M63 956v99q0 270 254 270h228q254 0 254 -270v-242q0 -270 -254 -270h-19q-16 0 -27.5 -12.5t-11.5 -28.5v-113h-239v117q0 270 254 270h10q16 0 27.5 12.5t11.5 28.5v244q0 16 -11.5 28.5t-27.5 12.5h-156q-16 0 -27.5 -12.5t-11.5 -28.5v-105h-254zM225 127 q0 61 43 104t104.5 43t104.5 -43t43 -104t-43 -104t-104.5 -43t-104.5 43t-43 104z" />
<glyph unicode="@" horiz-adv-x="1466" d="M133 -16v819q0 240 223 239h768q223 0 224 -239v-602q0 -240 -224 -240h-10q-145 0 -194 117q-45 -117 -197 -117h-68q-223 0 -223 240v358q0 240 223 240h45q127 0 172 -45q25 -25 43 -64v88h129v-641q0 -29 20.5 -50t49.5 -21h6q29 0 49.5 21.5t20.5 49.5v707 q0 29 -20.5 50t-49.5 21h-753q-29 0 -49.5 -21.5t-20.5 -49.5v-901q0 -29 20.5 -50.5t49.5 -21.5h870v-127h-881q-223 0 -223 240zM604 168q0 -29 20.5 -50.5t49.5 -21.5h129q29 0 49 21.5t20 50.5v424q0 29 -20.5 50.5t-48.5 21.5h-129q-29 0 -49.5 -21.5t-20.5 -50.5v-424 z" />
<glyph unicode="A" horiz-adv-x="993" d="M102 0v1075q0 270 254 271h273q254 0 254 -271v-1075h-287v444h-207v-444h-287zM389 666h207v444q0 16 -11.5 28.5t-27.5 12.5h-129q-16 0 -27.5 -12.5t-11.5 -28.5v-444z" />
<glyph unicode="B" horiz-adv-x="976" d="M102 0v1325h510q254 0 254 -270v-121q0 -164 -116 -209q133 -47 133 -217v-238q0 -270 -254 -270h-527zM389 197h168q16 0 27.5 12t11.5 29v297q0 16 -11.5 28t-27.5 12h-168v-378zM389 776h152q16 0 27.5 12.5t11.5 28.5v273q0 16 -11.5 28t-27.5 12h-152v-354z" />
<glyph unicode="C" horiz-adv-x="937" d="M102 250v825q0 270 254 271h258q254 0 254 -271v-125h-272v160q0 16 -11.5 28.5t-27.5 12.5h-129q-16 0 -27.5 -12.5t-11.5 -28.5v-893q0 -16 11.5 -28.5t27.5 -12.5h129q16 0 27.5 12.5t11.5 28.5v205h272v-172q0 -270 -254 -270h-258q-254 0 -254 270z" />
<glyph unicode="D" horiz-adv-x="993" d="M102 0v1325h527q254 0 254 -270v-785q0 -270 -254 -270h-527zM389 197h168q16 0 27.5 12t11.5 29v852q0 16 -11.5 28t-27.5 12h-168v-933z" />
<glyph unicode="E" horiz-adv-x="770" d="M102 0v1325h605v-233h-318v-312h297v-225h-297v-317h318v-238h-605z" />
<glyph unicode="F" horiz-adv-x="765" d="M102 0v1325h598v-248h-311v-317h291v-240h-291v-520h-287z" />
<glyph unicode="G" horiz-adv-x="923" d="M102 250v825q0 270 254 271h258q254 0 254 -271v-125h-272v160q0 16 -11.5 28.5t-27.5 12.5h-129q-16 0 -27.5 -12.5t-11.5 -28.5v-893q0 -16 11.5 -28.5t27.5 -12.5h129q16 0 27.5 12.5t11.5 28.5v309h-107v211h379v-487q0 -270 -254 -270h-258q-254 0 -254 270z" />
<glyph unicode="H" horiz-adv-x="1005" d="M102 0v1325h287v-555h227v555h287v-1325h-287v520h-227v-520h-287z" />
<glyph unicode="I" horiz-adv-x="499" d="M102 0v1325h287v-1325h-287z" />
<glyph unicode="J" horiz-adv-x="835" d="M23 250v166h272v-199q0 -16 11 -28.5t28 -12.5h108q16 0 27.5 12.5t11.5 28.5v1108h287v-1075q0 -270 -254 -270h-238q-253 0 -253 270z" />
<glyph unicode="K" horiz-adv-x="966" d="M102 0v1325h287v-555h70l207 555h262l-226 -608l269 -717h-293l-197 524h-92v-524h-287z" />
<glyph unicode="L" horiz-adv-x="735" d="M102 0v1325h287v-1083h313v-242h-600z" />
<glyph unicode="M" horiz-adv-x="1431" d="M100 0v1075q0 270 254 271h152q150 0 213 -99q59 98 213 99h151q254 0 254 -271v-1075h-286v1100q0 16 -11.5 28.5t-27.5 12.5h-111q-16 0 -27.5 -12.5t-11.5 -28.5v-1100h-287v1100q0 16 -11 28.5t-27 12.5h-111q-16 0 -27.5 -12.5t-11.5 -28.5v-1100h-287z" />
<glyph unicode="N" horiz-adv-x="952" d="M100 0v1075q0 270 254 271h254q254 0 254 -271v-1075h-287v1100q0 16 -11 28.5t-27 12.5h-111q-16 0 -27.5 -12.5t-11.5 -28.5v-1100h-287z" />
<glyph unicode="O" horiz-adv-x="991" d="M102 250v825q0 270 254 271h273q254 0 254 -271v-825q0 -270 -254 -270h-273q-254 0 -254 270zM389 217q0 -16 11.5 -28.5t27.5 -12.5h129q16 0 27.5 12.5t11.5 28.5v893q0 16 -11.5 28.5t-27.5 12.5h-129q-16 0 -27.5 -12.5t-11.5 -28.5v-893z" />
<glyph unicode="P" horiz-adv-x="913" d="M100 0v1325h518q254 0 254 -270v-264q0 -270 -254 -271h-231v-520h-287zM387 717h160q16 0 27.5 12t11.5 29v329q0 16 -11.5 28.5t-27.5 12.5h-160v-411z" />
<glyph unicode="Q" horiz-adv-x="972" d="M102 250v825q0 270 254 271h273q254 0 254 -271v-825q0 -270 -254 -270h-4v-103q0 -31 30 -31h66v-200h-121q-100 0 -156.5 60.5t-56.5 135.5v138h-31q-254 0 -254 270zM389 217q0 -16 11.5 -28.5t27.5 -12.5h129q16 0 27.5 12.5t11.5 28.5v893q0 16 -11.5 28.5 t-27.5 12.5h-129q-16 0 -27.5 -12.5t-11.5 -28.5v-893z" />
<glyph unicode="R" horiz-adv-x="948" d="M102 0v1325h510q254 0 254 -270v-154q0 -164 -116 -209q102 -37 102 -168v-524h-287v502q0 41 -39 41h-137v-543h-287zM389 743h152q16 0 27.5 12.5t11.5 28.5v306q0 16 -11.5 28t-27.5 12h-152v-387z" />
<glyph unicode="S" horiz-adv-x="937" d="M102 250v137h273v-147q0 -16 11 -28.5t28 -12.5h127q16 0 27.5 12t11.5 29v260q0 16 -11.5 28.5t-27.5 12.5h-185q-254 0 -254 270v264q0 270 254 271h228q254 0 254 -271v-98h-273v104q0 16 -11 28.5t-28 12.5h-112q-16 0 -27.5 -12t-11.5 -29v-235q0 -16 11 -28.5 t28 -12.5h184q254 -4 254 -270v-285q0 -270 -254 -270h-242q-254 0 -254 270z" />
<glyph unicode="T" horiz-adv-x="772" d="M27 1081v244h716v-244h-215v-1081h-286v1081h-215z" />
<glyph unicode="U" horiz-adv-x="956" d="M100 250v1075h287v-1100q0 -16 11.5 -28.5t27.5 -12.5h111q16 0 27 12.5t11 28.5v1100h287v-1075q0 -270 -254 -270h-254q-254 0 -254 270z" />
<glyph unicode="V" horiz-adv-x="952" d="M35 1325h278l162 -967l162 967h276l-274 -1325h-330z" />
<glyph unicode="W" horiz-adv-x="1447" d="M45 1325h279l114 -997l154 997h254l153 -997l115 997h279l-215 -1325h-326l-133 813l-133 -813h-326z" />
<glyph unicode="X" horiz-adv-x="923" d="M18 0l238 664l-207 661h279l131 -428l131 428h280l-211 -661l238 -664h-299l-139 463l-140 -463h-301z" />
<glyph unicode="Y" horiz-adv-x="890" d="M14 1325h271l157 -553l158 553h270l-284 -842v-483h-287v483z" />
<glyph unicode="Z" horiz-adv-x="813" d="M66 0v176l397 934h-385v215h682v-186l-395 -926h395v-213h-694z" />
<glyph unicode="[" horiz-adv-x="577" d="M96 -166v1581h383v-201h-186v-1179h186v-201h-383z" />
<glyph unicode="\" horiz-adv-x="624" d="M-86 1380h219l580 -1527h-219z" />
<glyph unicode="]" horiz-adv-x="602" d="M96 35h187v1179h-187v201h383v-1581h-383v201z" />
<glyph unicode="^" horiz-adv-x="788" d="M61 854l263 471h147l262 -471h-170l-166 295l-170 -295h-166z" />
<glyph unicode="_" horiz-adv-x="944" d="M66 -223h819v-158h-819v158z" />
<glyph unicode="`" horiz-adv-x="632" d="M57 1198h301l170 -209h-202z" />
<glyph unicode="a" d="M92 250v500q0 270 254 270h43q147 0 211 -94v73h231v-999h-231v74q-63 -94 -211 -94h-43q-254 0 -254 270zM367 217q0 -16 11 -28.5t28 -12.5h112q16 0 27.5 12.5t11.5 28.5v565q0 16 -11 28.5t-28 12.5h-112q-16 0 -27.5 -12t-11.5 -29v-565z" />
<glyph unicode="b" d="M92 0v1325h275v-354q66 49 168 49h43q254 0 253 -270v-500q0 -270 -253 -270h-43q-147 0 -211 94v-74h-232zM367 217q0 -16 11 -28.5t28 -12.5h112q16 0 27.5 12.5t11.5 28.5v565q0 16 -11 28.5t-28 12.5h-112q-16 0 -27.5 -12t-11.5 -29v-565z" />
<glyph unicode="c" horiz-adv-x="913" d="M92 250v500q0 270 254 270h232q254 0 253 -270v-144h-274v176q0 16 -11 28.5t-28 12.5h-112q-16 0 -27.5 -12t-11.5 -29v-565q0 -16 11 -28.5t28 -12.5h112q16 0 27.5 12.5t11.5 28.5v176h274v-143q0 -270 -253 -270h-232q-254 0 -254 270z" />
<glyph unicode="d" d="M92 250v500q0 270 254 270h43q104 0 168 -49v354h274v-1325h-231v74q-63 -94 -211 -94h-43q-254 0 -254 270zM367 217q0 -16 11 -28.5t28 -12.5h112q16 0 27.5 12.5t11.5 28.5v565q0 16 -11 28.5t-28 12.5h-112q-16 0 -27.5 -12t-11.5 -29v-565z" />
<glyph unicode="e" horiz-adv-x="890" d="M92 250v500q0 270 254 270h232q254 0 253 -270v-324h-464v-209q0 -16 11 -28.5t28 -12.5h112q16 0 27.5 12.5t11.5 28.5v111h274v-78q0 -270 -253 -270h-232q-254 0 -254 270zM367 606h190v185q0 16 -11 28t-28 12h-112q-16 0 -27.5 -12t-11.5 -28v-185z" />
<glyph unicode="f" horiz-adv-x="567" d="M92 0v1075q0 270 254 271h193v-189h-82q-45 0 -67.5 -20.5t-22.5 -77.5v-60h172v-206h-172v-793h-275z" />
<glyph unicode="g" d="M92 317v433q0 270 254 270h43q147 0 211 -94v73h231v-1075q0 -270 -253 -270h-205q-254 0 -254 270v33h248v-66q0 -16 11 -28.5t28 -12.5h112q16 0 27.5 12.5t11.5 28.5v205q-63 -49 -168 -49h-43q-254 0 -254 270zM367 285q0 -16 11 -28.5t28 -12.5h112q16 0 27.5 12 t11.5 29v497q0 16 -11 28.5t-28 12.5h-112q-16 0 -27.5 -12t-11.5 -29v-497z" />
<glyph unicode="h" d="M92 0v1325h275v-354q61 49 168 49h43q254 0 253 -270v-750h-274v782q0 16 -11 28.5t-28 12.5h-112q-35 0 -39 -37v-786h-275z" />
<glyph unicode="i" horiz-adv-x="503" d="M115 1231.5q0 62.5 45 106.5t106.5 44t105.5 -44t44 -107.5t-44 -106.5t-105.5 -43t-106.5 44t-45 106.5zM129 0v999h274v-999h-274z" />
<glyph unicode="j" horiz-adv-x="542" d="M6 -145h55q45 0 68 20.5t23 77.5v1046h274v-1075q0 -270 -254 -270h-166v201zM137 1231.5q0 62.5 45 106.5t106.5 44t105.5 -44t44 -107.5t-44 -106.5t-105.5 -43t-106.5 44t-45 106.5z" />
<glyph unicode="k" horiz-adv-x="933" d="M92 0v1325h275v-684h92l149 358h271l-205 -469l237 -530h-274l-188 416h-82v-416h-275z" />
<glyph unicode="l" horiz-adv-x="458" d="M92 0v1325h275v-1325h-275z" />
<glyph unicode="m" horiz-adv-x="1353" d="M92 0v999h250v-51q63 72 193 72h18q152 0 211 -94q63 94 211 94h18q254 0 254 -270v-750h-274v782q0 16 -11.5 28.5t-27.5 12.5h-88q-16 0 -27.5 -12t-11.5 -29v-782h-275v782q0 16 -11 28.5t-27 12.5h-88q-16 0 -27.5 -12t-11.5 -29v-782h-275z" />
<glyph unicode="n" d="M92 0v999h250v-51q63 72 193 72h43q254 0 253 -270v-750h-274v782q0 16 -11 28.5t-28 12.5h-112q-16 0 -27.5 -12t-11.5 -29v-782h-275z" />
<glyph unicode="o" d="M92 250v500q0 270 254 270h232q254 0 253 -270v-500q0 -270 -253 -270h-232q-254 0 -254 270zM367 193q0 -16 11 -28.5t28 -12.5h112q16 0 27.5 12t11.5 29v616q0 16 -11 28.5t-28 12.5h-112q-16 0 -27.5 -12.5t-11.5 -28.5v-616z" />
<glyph unicode="p" d="M92 -326v1325h232v-73q63 94 211 94h43q254 0 253 -270v-500q0 -270 -253 -270h-43q-104 0 -168 49v-355h-275zM367 217q0 -16 11 -28.5t28 -12.5h112q16 0 27.5 12.5t11.5 28.5v565q0 16 -11 28.5t-28 12.5h-112q-16 0 -27.5 -12t-11.5 -29v-565z" />
<glyph unicode="q" d="M92 250v500q0 270 254 270h43q147 0 211 -94v73h231v-1325h-274v355q-63 -49 -168 -49h-43q-254 0 -254 270zM367 217q0 -16 11 -28.5t28 -12.5h112q16 0 27.5 12.5t11.5 28.5v565q0 16 -11 28.5t-28 12.5h-112q-16 0 -27.5 -12t-11.5 -29v-565z" />
<glyph unicode="r" horiz-adv-x="602" d="M92 0v999h250v-96q59 117 176 117h53v-266h-135q-70 0 -69 -72v-682h-275z" />
<glyph unicode="s" horiz-adv-x="886" d="M78 657v93q0 270 254 270h215q254 0 254 -270v-37h-254v63q0 16 -11.5 28.5t-27.5 12.5h-156q-16 0 -27.5 -12t-11.5 -29v-108q0 -16 11.5 -28.5t27.5 -12.5h211q254 0 254 -271v-106q0 -270 -254 -270h-227q-254 0 -254 270v63h254v-90q0 -16 11 -28.5t28 -12.5h168 q16 0 27.5 12.5t11.5 28.5v123q0 16 -11.5 28.5t-27.5 12.5h-211q-254 0 -254 270z" />
<glyph unicode="t" horiz-adv-x="589" d="M92 250v967h275v-218h172v-198h-172v-545q0 -57 22.5 -77.5t67.5 -20.5h82v-178h-193q-254 0 -254 270z" />
<glyph unicode="u" d="M92 250v749h275v-782q0 -16 11 -28.5t28 -12.5h112q16 0 27.5 12.5t11.5 28.5v782h274v-999h-249v51q-63 -72 -193 -71h-43q-254 0 -254 270z" />
<glyph unicode="v" horiz-adv-x="845" d="M18 999h267l135 -776l133 776h266l-219 -999h-362z" />
<glyph unicode="w" horiz-adv-x="1355" d="M14 999h267l116 -776l150 776h262l149 -776l117 776h266l-219 -999h-331l-113 616l-113 -616h-332z" />
<glyph unicode="x" horiz-adv-x="894" d="M8 0l279 532l-260 467h299l118 -299l119 299h299l-260 -467l279 -532h-285l-152 328l-151 -328h-285z" />
<glyph unicode="y" d="M92 315v684h275v-716q0 -16 11 -28.5t28 -12.5h112q16 0 27.5 12t11.5 29v716h274v-1075q0 -270 -253 -270h-205q-254 0 -254 270v33h266v-66q0 -16 11.5 -28.5t27.5 -12.5h94q16 0 27.5 12.5t11.5 28.5v203q-61 -49 -168 -49h-43q-254 0 -254 270z" />
<glyph unicode="z" horiz-adv-x="790" d="M63 0v193l388 606h-388v200h676v-182l-393 -614h393v-203h-676z" />
<glyph unicode="{" horiz-adv-x="528" d="M88 535v188h35q16 0 27.5 12.5t11.5 28.5v381q0 270 254 270h80v-194h-84q-16 0 -27.5 -12.5t-11.5 -28.5v-320q0 -172 -84 -231q84 -59 84 -232v-329q0 -16 11 -28.5t28 -12.5h84v-207h-80q-254 0 -254 270v404q0 16 -11.5 28.5t-27.5 12.5h-35z" />
<glyph unicode="|" horiz-adv-x="542" d="M164 -150v1530h211v-1530h-211z" />
<glyph unicode="}" horiz-adv-x="538" d="M88 27h84q16 0 27.5 12t11.5 29v329q0 172 84 232q-84 59 -84 231v320q0 16 -11.5 28.5t-27.5 12.5h-84v194h80q254 0 254 -270v-381q0 -16 11 -28.5t28 -12.5h35v-188h-35q-16 0 -27.5 -12.5t-11.5 -28.5v-404q0 -270 -254 -270h-80v207z" />
<glyph unicode="&#xa1;" horiz-adv-x="520" d="M121 876.5q0 61.5 43 104.5t104.5 43t104.5 -43t43 -104.5t-43 -104.5t-104.5 -43t-104.5 43t-43 104.5zM129 -322l35 936h205l34 -936h-274z" />
<glyph unicode="&#xa2;" horiz-adv-x="933" d="M92 250v500q0 270 254 270h70v143h92v-143h70q254 0 253 -270v-144h-274v176q0 16 -11 28.5t-28 12.5h-112q-16 0 -27.5 -12t-11.5 -29v-565q0 -16 11 -28.5t28 -12.5h112q16 0 27.5 12.5t11.5 28.5v176h274v-143q0 -270 -253 -270h-70v-183h-92v183h-70q-254 0 -254 270 z" />
<glyph unicode="&#xa3;" horiz-adv-x="1011" d="M66 0v207h131v356h-131v207h131v305q0 270 254 271h258q254 0 254 -271v-125h-273v160q0 16 -11 28.5t-28 12.5h-129q-16 0 -27.5 -12.5t-11.5 -28.5v-340h199v-207h-199v-356h346v-207h-763z" />
<glyph unicode="&#xa4;" horiz-adv-x="1390" d="M119 248l182 180q-57 102 -57 221t57 221l-182 183l184 182l180 -180q102 57 221 57t222 -57l180 180l184 -182l-182 -183q57 -102 57 -221t-57 -221l182 -180l-184 -182l-180 180q-102 -57 -221 -57.5t-222 57.5l-180 -180zM473 650q0 -95 67.5 -163.5t164 -68.5 t164 68.5t67.5 163.5t-67.5 163t-164 68t-164 -68t-67.5 -163z" />
<glyph unicode="&#xa5;" horiz-adv-x="894" d="M14 1325h271l157 -553l158 553h270l-215 -631h179v-147h-228l-20 -64v-69h248v-148h-248v-266h-287v266h-248v148h248v69l-23 64h-225v147h176z" />
<glyph unicode="&#xa6;" horiz-adv-x="669" d="M205 -401v847h252v-847h-252zM205 616v848h252v-848h-252z" />
<glyph unicode="&#xa7;" horiz-adv-x="905" d="M78 332v16q0 150 78 215q-78 68 -78 217v86q0 270 254 271h225q254 0 254 -271v-37h-254v80q0 16 -11 28.5t-28 12.5h-166q-16 0 -27.5 -12t-11.5 -29v-137q0 -16 11.5 -28.5t27.5 -12.5h211q254 0 254 -270v-17q0 -150 -78 -217q78 -66 78 -215v-86q0 -270 -254 -270 h-225q-254 0 -254 270v37h254v-80q0 -16 11 -28.5t28 -12.5h166q16 0 27.5 12.5t11.5 28.5v137q0 16 -11.5 28.5t-27.5 12.5h-211q-254 1 -254 271zM313 313q0 -16 11.5 -28.5t27.5 -12.5h191q16 0 27.5 12.5t11.5 28.5v164q0 16 -11.5 28.5t-27.5 12.5h-191 q-16 0 -27.5 -12t-11.5 -29v-164z" />
<glyph unicode="&#xa8;" horiz-adv-x="763" d="M100 1099q0 48 35 83t83 35t82 -35t34 -83t-34 -82t-82 -34t-83 34t-35 82zM432 1099q0 48 35 83t83 35t82 -35t34 -83t-34 -82t-82 -34t-83 34t-35 82z" />
<glyph unicode="&#xa9;" horiz-adv-x="1251" d="M121 119v1071q0 49 34.5 84t84.5 35h778q49 0 84 -35t35 -84v-1071q0 -49 -35 -84t-84 -35h-778q-49 0 -84 35t-35 84zM266 145h725v1018h-725v-1018zM377 483v344q0 180 172 181h160q178 0 178 -181v-100h-191v123q0 27 -26 27h-76q-27 0 -27 -27v-391q0 -25 27 -25h76 q10 0 18 7.5t8 17.5v123h191v-99q0 -186 -178 -186h-160q-172 0 -172 186z" />
<glyph unicode="&#xaa;" horiz-adv-x="587" d="M98 952v250q0 135 127 135h21q102 0 137 -47v37h115v-500h-115v37q-33 -47 -137 -47h-21q-127 0 -127 135zM236 936q0 -20 18 -21h88q18 0 18 21v283q0 20 -18 20h-88q-18 0 -18 -20v-283z" />
<glyph unicode="&#xab;" horiz-adv-x="1294" d="M51 545v4l510 508l172 -172l-338 -338l338 -338l-172 -172zM559 545v4l510 508l172 -172l-338 -338l338 -338l-172 -172z" />
<glyph unicode="&#xac;" horiz-adv-x="1003" d="M92 608v258h823v-458h-243v200h-580z" />
<glyph unicode="&#xad;" horiz-adv-x="923" d="M115 489v220h698v-220h-698z" />
<glyph unicode="&#xae;" horiz-adv-x="1183" d="M115 170v997q0 45 32.5 78t77.5 33h725q45 0 78 -33t33 -78v-997q0 -47 -33 -79t-78 -32h-725q-45 0 -77.5 32t-32.5 79zM250 195h676v948h-676v-948zM383 313v711h274q135 0 136 -145v-82q0 -88 -62 -113q55 -20 55 -90v-281h-155v269q0 23 -21 22h-73v-291h-154z M537 713h81q20 0 21 20v164q0 23 -21 23h-81v-207z" />
<glyph unicode="&#xaf;" horiz-adv-x="673" d="M106 1014v139h467v-139h-467z" />
<glyph unicode="&#xb0;" horiz-adv-x="630" d="M94 944v262q0 141 133 142h185q133 0 133 -142v-262q0 -141 -133 -141h-185q-133 0 -133 141zM240 913q0 -20 20 -20h119q20 0 20 20v324q0 23 -20 23h-119q-20 0 -20 -23v-324z" />
<glyph unicode="&#xb1;" horiz-adv-x="1013" d="M113 0v205h790v-205h-790zM115 604v205h278v289h232v-289h278v-205h-278v-291h-232v291h-278z" />
<glyph unicode="&#xb2;" horiz-adv-x="573" d="M111 1167v47q0 127 118 127h107q119 0 119 -127v-145q0 -127 -119 -127h-78q-18 0 -18 -18v-103h206v-110h-329v223q0 127 119 127h77q18 0 19 18v138q0 20 -19 20h-57q-18 0 -18 -20v-50h-127z" />
<glyph unicode="&#xb3;" horiz-adv-x="567" d="M104 827v52h121v-58q0 -18 19 -18h75q18 0 19 18v133q0 18 -19 19h-98v104h92q18 0 19 19v121q0 20 -19 20h-63q-18 0 -19 -20v-62h-120v59q0 127 118 127h103q119 0 119 -127v-81q0 -78 -39 -105q45 -33 45 -108v-93q0 -127 -119 -127h-113q-121 0 -121 127z" />
<glyph unicode="&#xb4;" horiz-adv-x="587" d="M57 989l170 209h301l-268 -209h-203z" />
<glyph unicode="&#xb5;" horiz-adv-x="946" d="M92 -326v1325h275v-782q0 -16 11 -28.5t28 -12.5h112q16 0 27.5 12.5t11.5 28.5v782h274v-749q0 -270 -253 -270h-43q-117 0 -181 71v-377h-262z" />
<glyph unicode="&#x3bc;" horiz-adv-x="946" d="M92 -326v1325h275v-782q0 -16 11 -28.5t28 -12.5h112q16 0 27.5 12.5t11.5 28.5v782h274v-749q0 -270 -253 -270h-43q-117 0 -181 71v-377h-262z" />
<glyph unicode="&#xb6;" horiz-adv-x="1083" d="M66 920v215q0 270 253 270h721v-197h-106v-1337h-244v1337h-98v-1337h-242v778h-31q-253 1 -253 271z" />
<glyph unicode="&#xb7;" horiz-adv-x="573" d="M121 626.5q0 61.5 43 104.5t104.5 43t104.5 -43t43 -104.5t-43 -104.5t-104.5 -43t-104.5 43t-43 104.5z" />
<glyph unicode="&#xb8;" horiz-adv-x="651" d="M125 -217l201 209h202l-102 -209h-301z" />
<glyph unicode="&#xb9;" horiz-adv-x="368" d="M117 709v622h131v-622h-131z" />
<glyph unicode="&#xba;" horiz-adv-x="595" d="M102 952v250q0 135 127 135h146q127 0 127 -135v-250q0 -135 -127 -135h-146q-127 0 -127 135zM240 924q0 -20 18 -21h88q18 0 19 21v307q0 20 -19 20h-88q-18 0 -18 -20v-307z" />
<glyph unicode="&#xbb;" horiz-adv-x="1333" d="M51 209l338 338l-338 338l172 172l510 -508v-4l-510 -508zM559 209l338 338l-338 338l172 172l510 -508v-4l-510 -508z" />
<glyph unicode="&#xbf;" horiz-adv-x="866" d="M63 -51v241q0 270 254 271h19q16 0 27.5 12t11.5 29v112h239v-116q0 -270 -254 -271h-10q-16 0 -27.5 -12t-11.5 -29v-243q0 -16 11.5 -28.5t27.5 -12.5h156q16 0 27.5 12t11.5 29v104h254v-98q0 -270 -254 -271h-228q-254 1 -254 271zM342 876.5q0 61.5 43 104.5 t104.5 43t104.5 -43t43 -104.5t-43 -104.5t-104.5 -43t-104.5 43t-43 104.5z" />
<glyph unicode="&#xc0;" horiz-adv-x="993" d="M102 0v1075q0 270 254 271h273q254 0 254 -271v-1075h-287v444h-207v-444h-287zM227 1638h301l170 -208h-202zM389 666h207v444q0 16 -11.5 28.5t-27.5 12.5h-129q-16 0 -27.5 -12.5t-11.5 -28.5v-444z" />
<glyph unicode="&#xc1;" horiz-adv-x="993" d="M102 0v1075q0 270 254 271h273q254 0 254 -271v-1075h-287v444h-207v-444h-287zM287 1430l170 208h301l-269 -208h-202zM389 666h207v444q0 16 -11.5 28.5t-27.5 12.5h-129q-16 0 -27.5 -12.5t-11.5 -28.5v-444z" />
<glyph unicode="&#xc2;" horiz-adv-x="993" d="M102 0v1075q0 270 254 271h273q254 0 254 -271v-1075h-287v444h-207v-444h-287zM168 1436l170 217h307l170 -217h-203l-120 114l-121 -114h-203zM389 666h207v444q0 16 -11.5 28.5t-27.5 12.5h-129q-16 0 -27.5 -12.5t-11.5 -28.5v-444z" />
<glyph unicode="&#xc3;" horiz-adv-x="993" d="M102 0v1075q0 270 254 271h273q254 0 254 -271v-1075h-287v444h-207v-444h-287zM164 1417l2 19q8 100 67.5 151t134 51t158.5 -32.5t139.5 -32.5t108.5 61l55 -4l-2 -18q-8 -98 -68.5 -150.5t-142.5 -52.5h-18q-55 6 -130 35t-114 33q-84 0 -135 -64zM389 666h207v444 q0 16 -11.5 28.5t-27.5 12.5h-129q-16 0 -27.5 -12.5t-11.5 -28.5v-444z" />
<glyph unicode="&#xc4;" horiz-adv-x="993" d="M102 0v1075q0 270 254 271h273q254 0 254 -271v-1075h-287v444h-207v-444h-287zM209 1539q0 48 35 83t83 35t81.5 -35t33.5 -83t-33.5 -82t-81.5 -34t-83 34t-35 82zM389 666h207v444q0 16 -11.5 28.5t-27.5 12.5h-129q-16 0 -27.5 -12.5t-11.5 -28.5v-444zM541 1539 q0 48 34.5 83t83 35t82 -35t33.5 -83t-33.5 -82t-82 -34t-83 34t-34.5 82z" />
<glyph unicode="&#xc5;" horiz-adv-x="993" d="M102 0v1075q0 270 254 271h273q254 0 254 -271v-1075h-287v444h-207v-444h-287zM283 1583v27q0 154 145 153h131q143 0 143 -153v-27q0 -154 -143 -153h-131q-145 -1 -145 153zM389 666h207v444q0 16 -11.5 28.5t-27.5 12.5h-129q-16 0 -27.5 -12.5t-11.5 -28.5v-444z M428 1540q0 -10 8 -19.5t19 -9.5h77q10 0 18.5 9.5t8.5 19.5v111q0 12 -8 20t-19 8h-77q-27 0 -27 -28v-111z" />
<glyph unicode="&#xc6;" horiz-adv-x="1255" d="M102 0v1055q0 270 254 270h838v-233h-311v-342h291v-211h-291v-301h311v-238h-598v504h-207v-504h-287zM389 725h207v387h-168q-16 0 -27.5 -12.5t-11.5 -28.5v-346z" />
<glyph unicode="&#xc7;" horiz-adv-x="937" d="M102 250v825q0 270 254 271h258q254 0 254 -271v-125h-272v160q0 16 -11.5 28.5t-27.5 12.5h-129q-16 0 -27.5 -12.5t-11.5 -28.5v-893q0 -16 11.5 -28.5t27.5 -12.5h129q16 0 27.5 12.5t11.5 28.5v205h272v-172q0 -270 -254 -270h-8l-96 -197h-301l188 197h-41 q-254 0 -254 270z" />
<glyph unicode="&#xc8;" horiz-adv-x="770" d="M102 0v1325h605v-233h-318v-312h297v-225h-297v-317h318v-238h-605zM109 1638h301l170 -208h-203z" />
<glyph unicode="&#xc9;" horiz-adv-x="770" d="M102 0v1325h605v-233h-318v-312h297v-225h-297v-317h318v-238h-605zM225 1430l170 208h301l-268 -208h-203z" />
<glyph unicode="&#xca;" horiz-adv-x="770" d="M74 1436l170 217h307l170 -217h-203l-121 114l-121 -114h-202zM102 0v1325h605v-233h-318v-312h297v-225h-297v-317h318v-238h-605z" />
<glyph unicode="&#xcb;" horiz-adv-x="770" d="M102 0v1325h605v-233h-318v-312h297v-225h-297v-317h318v-238h-605zM117 1539q0 48 34.5 83t83 35t82 -35t33.5 -83t-33.5 -82t-82 -34t-83 34t-34.5 82zM449 1539q0 48 34.5 83t82.5 35t82 -35t34 -83t-34 -82t-82 -34t-82.5 34t-34.5 82z" />
<glyph unicode="&#xcc;" horiz-adv-x="499" d="M-43 1638h301l170 -208h-203zM102 0v1325h287v-1325h-287z" />
<glyph unicode="&#xcd;" horiz-adv-x="499" d="M63 1430l170 208h302l-269 -208h-203zM102 0v1325h287v-1325h-287z" />
<glyph unicode="&#xce;" horiz-adv-x="499" d="M-78 1436l170 217h307l170 -217h-202l-121 114l-121 -114h-203zM102 0v1325h287v-1325h-287z" />
<glyph unicode="&#xcf;" horiz-adv-x="499" d="M-37 1539q0 48 35 83t83 35t82 -35t34 -83t-34 -82t-82 -34t-83 34t-35 82zM102 0v1325h287v-1325h-287zM295 1539q0 48 35 83t83 35t81.5 -35t33.5 -83t-33.5 -82t-81.5 -34t-83 34t-35 82z" />
<glyph unicode="&#xd0;" horiz-adv-x="1030" d="M20 573v179h130v573h526q254 0 254 -270v-785q0 -270 -254 -270h-526v573h-130zM436 197h168q16 0 27.5 12t11.5 29v852q0 16 -11 28t-28 12h-168v-378h103v-179h-103v-376z" />
<glyph unicode="&#xd1;" horiz-adv-x="952" d="M100 0v1075q0 270 254 271h254q254 0 254 -271v-1075h-287v1100q0 16 -11 28.5t-27 12.5h-111q-16 0 -27.5 -12.5t-11.5 -28.5v-1100h-287zM143 1417l2 19q8 100 67.5 151t134.5 51t159 -32.5t139 -32.5t109 61l55 -4l-2 -18q-8 -98 -68.5 -150.5t-142.5 -52.5h-18 q-55 6 -130 35t-114 33q-84 0 -135 -64z" />
<glyph unicode="&#xd2;" horiz-adv-x="991" d="M102 250v825q0 270 254 271h273q254 0 254 -271v-825q0 -270 -254 -270h-273q-254 0 -254 270zM227 1638h301l170 -208h-202zM389 217q0 -16 11.5 -28.5t27.5 -12.5h129q16 0 27.5 12.5t11.5 28.5v893q0 16 -11.5 28.5t-27.5 12.5h-129q-16 0 -27.5 -12.5t-11.5 -28.5 v-893z" />
<glyph unicode="&#xd3;" horiz-adv-x="991" d="M102 250v825q0 270 254 271h273q254 0 254 -271v-825q0 -270 -254 -270h-273q-254 0 -254 270zM287 1430l170 208h301l-269 -208h-202zM389 217q0 -16 11.5 -28.5t27.5 -12.5h129q16 0 27.5 12.5t11.5 28.5v893q0 16 -11.5 28.5t-27.5 12.5h-129q-16 0 -27.5 -12.5 t-11.5 -28.5v-893z" />
<glyph unicode="&#xd4;" horiz-adv-x="991" d="M102 250v825q0 270 254 271h273q254 0 254 -271v-825q0 -270 -254 -270h-273q-254 0 -254 270zM168 1436l170 217h307l170 -217h-203l-120 114l-121 -114h-203zM389 217q0 -16 11.5 -28.5t27.5 -12.5h129q16 0 27.5 12.5t11.5 28.5v893q0 16 -11.5 28.5t-27.5 12.5h-129 q-16 0 -27.5 -12.5t-11.5 -28.5v-893z" />
<glyph unicode="&#xd5;" horiz-adv-x="991" d="M102 250v825q0 270 254 271h273q254 0 254 -271v-825q0 -270 -254 -270h-273q-254 0 -254 270zM162 1417l2 19q8 100 67.5 151t134 51t158.5 -32.5t139.5 -32.5t108.5 61l55 -4l-2 -18q-8 -98 -68.5 -150.5t-142.5 -52.5h-18q-55 6 -130 35t-114 33q-84 0 -135 -64z M389 217q0 -16 11.5 -28.5t27.5 -12.5h129q16 0 27.5 12.5t11.5 28.5v893q0 16 -11.5 28.5t-27.5 12.5h-129q-16 0 -27.5 -12.5t-11.5 -28.5v-893z" />
<glyph unicode="&#xd6;" horiz-adv-x="991" d="M102 250v825q0 270 254 271h273q254 0 254 -271v-825q0 -270 -254 -270h-273q-254 0 -254 270zM209 1539q0 48 35 83t83 35t81.5 -35t33.5 -83t-33.5 -82t-81.5 -34t-83 34t-35 82zM389 217q0 -16 11.5 -28.5t27.5 -12.5h129q16 0 27.5 12.5t11.5 28.5v893 q0 16 -11.5 28.5t-27.5 12.5h-129q-16 0 -27.5 -12.5t-11.5 -28.5v-893zM541 1539q0 48 34.5 83t83 35t82 -35t33.5 -83t-33.5 -82t-82 -34t-83 34t-34.5 82z" />
<glyph unicode="&#xd7;" horiz-adv-x="952" d="M111 381l219 219l-219 221l143 144l219 -222l219 222l144 -144l-220 -221l220 -219l-144 -143l-219 219l-219 -219z" />
<glyph unicode="&#xd8;" horiz-adv-x="991" d="M102 248v825q0 270 254 270h273q23 0 63 -4l56 136l124 -52l-57 -143q68 -68 68 -207v-825q0 -270 -254 -271h-273q-35 0 -65 7l-53 -138l-125 52l57 143q-68 64 -68 207zM389 215q0 -16 11.5 -28.5t27.5 -12.5h129q16 0 27.5 12.5t11.5 28.5v522l-207 -514v-8zM389 586 l207 512v10q0 16 -11.5 28.5t-27.5 12.5h-129q-16 0 -27.5 -12.5t-11.5 -28.5v-522z" />
<glyph unicode="&#xd9;" horiz-adv-x="956" d="M100 250v1075h287v-1100q0 -16 11.5 -28.5t27.5 -12.5h111q16 0 27 12.5t11 28.5v1100h287v-1075q0 -270 -254 -270h-254q-254 0 -254 270zM186 1638h301l170 -208h-202z" />
<glyph unicode="&#xda;" horiz-adv-x="956" d="M100 250v1075h287v-1100q0 -16 11.5 -28.5t27.5 -12.5h111q16 0 27 12.5t11 28.5v1100h287v-1075q0 -270 -254 -270h-254q-254 0 -254 270zM305 1430l170 208h301l-268 -208h-203z" />
<glyph unicode="&#xdb;" horiz-adv-x="956" d="M100 250v1075h287v-1100q0 -16 11.5 -28.5t27.5 -12.5h111q16 0 27 12.5t11 28.5v1100h287v-1075q0 -270 -254 -270h-254q-254 0 -254 270zM158 1436l170 217h307l170 -217h-203l-121 114l-121 -114h-202z" />
<glyph unicode="&#xdc;" horiz-adv-x="956" d="M100 250v1075h287v-1100q0 -16 11.5 -28.5t27.5 -12.5h111q16 0 27 12.5t11 28.5v1100h287v-1075q0 -270 -254 -270h-254q-254 0 -254 270zM199 1539q0 48 34.5 83t83 35t82 -35t33.5 -83t-33.5 -82t-82 -34t-83 34t-34.5 82zM530 1539q0 48 35 83t83 35t82 -35t34 -83 t-34 -82t-82 -34t-83 34t-35 82z" />
<glyph unicode="&#xdd;" horiz-adv-x="890" d="M14 1325h271l157 -553l158 553h270l-284 -842v-483h-287v483zM240 1430l170 208h301l-269 -208h-202z" />
<glyph unicode="&#xde;" horiz-adv-x="933" d="M100 0v1325h287v-283h231q254 0 254 -270v-264q0 -270 -254 -270h-231v-238h-287zM387 434h160q16 0 27.5 12.5t11.5 28.5v330q0 16 -11.5 28.5t-27.5 12.5h-160v-412z" />
<glyph unicode="&#xdf;" horiz-adv-x="1007" d="M68 0v217h120v356h-108v218h108v284q0 270 254 271h217q254 0 254 -271v-155q0 -160 -84 -222q96 -68 97 -231v-197q0 -270 -254 -270h-166v217h127q16 0 27.5 12.5t11.5 28.5v283q0 16 -11.5 28.5t-27.5 12.5h-115v221h103q16 0 27 12t11 29v237q0 16 -11 28.5t-27 12.5 h-138q-16 0 -27.5 -12t-11.5 -29v-1081h-376z" />
<glyph unicode="&#xe0;" d="M92 250v500q0 270 254 270h43q147 0 211 -94v73h231v-999h-231v74q-63 -94 -211 -94h-43q-254 0 -254 270zM186 1325h301l170 -209h-202zM367 217q0 -16 11 -28.5t28 -12.5h112q16 0 27.5 12.5t11.5 28.5v565q0 16 -11 28.5t-28 12.5h-112q-16 0 -27.5 -12t-11.5 -29 v-565z" />
<glyph unicode="&#xe1;" d="M92 250v500q0 270 254 270h43q147 0 211 -94v73h231v-999h-231v74q-63 -94 -211 -94h-43q-254 0 -254 270zM272 1116l170 209h301l-268 -209h-203zM367 217q0 -16 11 -28.5t28 -12.5h112q16 0 27.5 12.5t11.5 28.5v565q0 16 -11 28.5t-28 12.5h-112q-16 0 -27.5 -12 t-11.5 -29v-565z" />
<glyph unicode="&#xe2;" d="M92 250v500q0 270 254 270h43q147 0 211 -94v73h231v-999h-231v74q-63 -94 -211 -94h-43q-254 0 -254 270zM137 1108l170 217h307l170 -217h-202l-121 115l-121 -115h-203zM367 217q0 -16 11 -28.5t28 -12.5h112q16 0 27.5 12.5t11.5 28.5v565q0 16 -11 28.5t-28 12.5 h-112q-16 0 -27.5 -12t-11.5 -29v-565z" />
<glyph unicode="&#xe3;" d="M92 250v500q0 270 254 270h43q147 0 211 -94v73h231v-999h-231v74q-63 -94 -211 -94h-43q-254 0 -254 270zM137 1104l2 18q8 100 67.5 151.5t134.5 51.5t159 -32.5t139 -32.5t109 61l55 -4l-2 -19q-8 -98 -68.5 -150t-142.5 -52h-19q-55 6 -129.5 34.5t-113.5 32.5 q-84 0 -135 -63zM367 217q0 -16 11 -28.5t28 -12.5h112q16 0 27.5 12.5t11.5 28.5v565q0 16 -11 28.5t-28 12.5h-112q-16 0 -27.5 -12t-11.5 -29v-565z" />
<glyph unicode="&#xe4;" d="M92 250v500q0 270 254 270h43q147 0 211 -94v73h231v-999h-231v74q-63 -94 -211 -94h-43q-254 0 -254 270zM182 1228q0 48 35 83t83 35t82 -35t34 -83t-34 -82t-82 -34t-83 34t-35 82zM367 217q0 -16 11 -28.5t28 -12.5h112q16 0 27.5 12.5t11.5 28.5v565q0 16 -11 28.5 t-28 12.5h-112q-16 0 -27.5 -12t-11.5 -29v-565zM514 1228q0 48 35 83t83 35t82 -35t34 -83t-34 -82t-82 -34t-83 34t-35 82z" />
<glyph unicode="&#xe5;" d="M92 250v500q0 270 254 270h43q147 0 211 -94v73h231v-999h-231v74q-63 -94 -211 -94h-43q-254 0 -254 270zM246 1247v27q0 154 145 153h131q143 0 144 -153v-27q0 -154 -144 -153h-131q-145 -1 -145 153zM367 217q0 -16 11 -28.5t28 -12.5h112q16 0 27.5 12.5t11.5 28.5 v565q0 16 -11 28.5t-28 12.5h-112q-16 0 -27.5 -12t-11.5 -29v-565zM391 1204q0 -10 8.5 -19t18.5 -9h78q10 0 18 9t8 19v111q0 12 -8 20t-18 8h-78q-27 0 -27 -28v-111z" />
<glyph unicode="&#xe6;" horiz-adv-x="1386" d="M92 250v49q0 270 254 270h211v213q0 16 -11 28.5t-28 12.5h-121q-16 0 -27.5 -12t-11.5 -29v-110h-249v78q0 270 253 270h119q152 0 211 -94q61 94 211 94h135q254 0 254 -270v-324h-465v-209q0 -16 11.5 -28.5t27.5 -12.5h133q16 0 27.5 12.5t11.5 28.5v111h254v-78 q0 -270 -254 -270h-135q-150 0 -211 94q-59 -94 -211 -94h-135q-254 0 -254 270zM367 209q0 -16 11 -28.5t28 -12.5h112q16 0 27.5 12.5t11.5 28.5v172h-151q-16 0 -27.5 -12.5t-11.5 -28.5v-131zM827 606h191v185q0 16 -11.5 28t-27.5 12h-113q-16 0 -27.5 -12t-11.5 -28 v-185z" />
<glyph unicode="&#xe7;" horiz-adv-x="913" d="M92 250v500q0 270 254 270h232q254 0 253 -270v-144h-274v176q0 16 -11 28.5t-28 12.5h-112q-16 0 -27.5 -12t-11.5 -29v-565q0 -16 11 -28.5t28 -12.5h112q16 0 27.5 12.5t11.5 28.5v176h274v-143q0 -266 -251 -270l-97 -197h-301l189 197h-25q-254 0 -254 270z" />
<glyph unicode="&#xe8;" horiz-adv-x="890" d="M92 250v500q0 270 254 270h232q254 0 253 -270v-324h-464v-209q0 -16 11 -28.5t28 -12.5h112q16 0 27.5 12.5t11.5 28.5v111h274v-78q0 -270 -253 -270h-232q-254 0 -254 270zM170 1325h301l170 -209h-203zM367 606h190v185q0 16 -11 28t-28 12h-112q-16 0 -27.5 -12 t-11.5 -28v-185z" />
<glyph unicode="&#xe9;" horiz-adv-x="890" d="M92 250v500q0 270 254 270h232q254 0 253 -270v-324h-464v-209q0 -16 11 -28.5t28 -12.5h112q16 0 27.5 12.5t11.5 28.5v111h274v-78q0 -270 -253 -270h-232q-254 0 -254 270zM262 1116l170 209h301l-268 -209h-203zM367 606h190v185q0 16 -11 28t-28 12h-112 q-16 0 -27.5 -12t-11.5 -28v-185z" />
<glyph unicode="&#xea;" horiz-adv-x="890" d="M92 250v500q0 270 254 270h232q254 0 253 -270v-324h-464v-209q0 -16 11 -28.5t28 -12.5h112q16 0 27.5 12.5t11.5 28.5v111h274v-78q0 -270 -253 -270h-232q-254 0 -254 270zM137 1108l170 217h307l170 -217h-202l-121 115l-121 -115h-203zM367 606h190v185q0 16 -11 28 t-28 12h-112q-16 0 -27.5 -12t-11.5 -28v-185z" />
<glyph unicode="&#xeb;" horiz-adv-x="890" d="M92 250v500q0 270 254 270h232q254 0 253 -270v-324h-464v-209q0 -16 11 -28.5t28 -12.5h112q16 0 27.5 12.5t11.5 28.5v111h274v-78q0 -270 -253 -270h-232q-254 0 -254 270zM178 1228q0 48 35 83t83 35t82 -35t34 -83t-34 -82t-82 -34t-83 34t-35 82zM367 606h190v185 q0 16 -11 28t-28 12h-112q-16 0 -27.5 -12t-11.5 -28v-185zM510 1228q0 48 35 83t83 35t81.5 -35t33.5 -83t-33.5 -82t-81.5 -34t-83 34t-35 82z" />
<glyph unicode="&#xec;" horiz-adv-x="503" d="M0 1325h301l170 -209h-203zM129 0v999h274v-999h-274z" />
<glyph unicode="&#xed;" horiz-adv-x="503" d="M61 1116l170 209h301l-268 -209h-203zM129 0v999h274v-999h-274z" />
<glyph unicode="&#xee;" horiz-adv-x="503" d="M-57 1108l170 217h307l170 -217h-203l-121 115l-121 -115h-202zM129 0v999h274v-999h-274z" />
<glyph unicode="&#xef;" horiz-adv-x="503" d="M-16 1228q0 48 34.5 83t83 35t82 -35t33.5 -83t-33.5 -82t-82 -34t-83 34t-34.5 82zM129 0v999h274v-999h-274zM315 1228q0 48 35 83t83 35t82 -35t34 -83t-34 -82t-82 -34t-83 34t-35 82z" />
<glyph unicode="&#xf0;" horiz-adv-x="931" d="M92 250v436q0 270 254 270h103l-105 127l-121 -88l-67 92l116 87l-88 108l160 125l92 -115l86 64l68 -94l-80 -60q279 -336 289 -356q33 -63 32 -160v-436q0 -270 -253 -270h-232q-254 0 -254 270zM367 193q0 -16 11 -28.5t28 -12.5h112q16 0 27.5 12t11.5 29v552 q0 16 -11 28.5t-28 12.5h-112q-16 0 -27.5 -12t-11.5 -29v-552z" />
<glyph unicode="&#xf1;" d="M92 0v999h250v-51q63 72 193 72h43q254 0 253 -270v-750h-274v782q0 16 -11 28.5t-28 12.5h-112q-16 0 -27.5 -12t-11.5 -29v-782h-275zM129 1104l2 18q8 100 67.5 151.5t134.5 51.5t158.5 -32.5t139 -32.5t108.5 61l56 -4l-2 -19q-8 -98 -68.5 -150t-142.5 -52h-19 q-55 6 -130 34.5t-114 32.5q-84 0 -135 -63z" />
<glyph unicode="&#xf2;" d="M92 250v500q0 270 254 270h232q254 0 253 -270v-500q0 -270 -253 -270h-232q-254 0 -254 270zM174 1325h301l170 -209h-203zM367 193q0 -16 11 -28.5t28 -12.5h112q16 0 27.5 12t11.5 29v616q0 16 -11 28.5t-28 12.5h-112q-16 0 -27.5 -12.5t-11.5 -28.5v-616z" />
<glyph unicode="&#xf3;" d="M92 250v500q0 270 254 270h232q254 0 253 -270v-500q0 -270 -253 -270h-232q-254 0 -254 270zM279 1116l170 209h301l-269 -209h-202zM367 193q0 -16 11 -28.5t28 -12.5h112q16 0 27.5 12t11.5 29v616q0 16 -11 28.5t-28 12.5h-112q-16 0 -27.5 -12.5t-11.5 -28.5v-616z " />
<glyph unicode="&#xf4;" d="M92 250v500q0 270 254 270h232q254 0 253 -270v-500q0 -270 -253 -270h-232q-254 0 -254 270zM137 1108l170 217h307l170 -217h-202l-121 115l-121 -115h-203zM367 193q0 -16 11 -28.5t28 -12.5h112q16 0 27.5 12t11.5 29v616q0 16 -11 28.5t-28 12.5h-112 q-16 0 -27.5 -12.5t-11.5 -28.5v-616z" />
<glyph unicode="&#xf5;" d="M92 250v500q0 270 254 270h232q254 0 253 -270v-500q0 -270 -253 -270h-232q-254 0 -254 270zM133 1104l2 18q8 100 67.5 151.5t134.5 51.5t159 -32.5t139 -32.5t108 61l56 -4l-2 -19q-8 -98 -68.5 -150t-142.5 -52h-19q-55 6 -130 34.5t-113 32.5q-84 0 -136 -63z M367 193q0 -16 11 -28.5t28 -12.5h112q16 0 27.5 12t11.5 29v616q0 16 -11 28.5t-28 12.5h-112q-16 0 -27.5 -12.5t-11.5 -28.5v-616z" />
<glyph unicode="&#xf6;" d="M92 250v500q0 270 254 270h232q254 0 253 -270v-500q0 -270 -253 -270h-232q-254 0 -254 270zM176 1228q0 48 35 83t83 35t82 -35t34 -83t-34 -82t-82 -34t-83 34t-35 82zM367 193q0 -16 11 -28.5t28 -12.5h112q16 0 27.5 12t11.5 29v616q0 16 -11 28.5t-28 12.5h-112 q-16 0 -27.5 -12.5t-11.5 -28.5v-616zM508 1228q0 48 35 83t83 35t81.5 -35t33.5 -83t-33.5 -82t-81.5 -34t-83 34t-35 82z" />
<glyph unicode="&#xf7;" horiz-adv-x="952" d="M78 403v220h796v-220h-796zM330 184.5q0 61.5 43 104.5t104.5 43t104.5 -43t43 -104.5t-43 -104.5t-104.5 -43t-104.5 43t-43 104.5zM330 841.5q0 61.5 43 104.5t104.5 43t104.5 -43t43 -104.5t-43 -104.5t-104.5 -43t-104.5 43t-43 104.5z" />
<glyph unicode="&#xf8;" d="M70 -57l69 125q-47 66 -47 182v500q0 270 254 270h232q53 0 96 -12l65 116l117 -67l-72 -125q47 -66 47 -182v-500q0 -270 -253 -270h-232q-51 0 -94 12l-66 -117zM367 193q0 -16 11 -28.5t28 -12.5h112q16 0 27.5 12t11.5 29v337l-190 -335v-2zM367 469l190 336v4 q0 16 -11 28.5t-28 12.5h-112q-16 0 -27.5 -12.5t-11.5 -28.5v-340z" />
<glyph unicode="&#xf9;" d="M92 250v749h275v-782q0 -16 11 -28.5t28 -12.5h112q16 0 27.5 12.5t11.5 28.5v782h274v-999h-249v51q-63 -72 -193 -71h-43q-254 0 -254 270zM180 1325h301l170 -209h-202z" />
<glyph unicode="&#xfa;" d="M92 250v749h275v-782q0 -16 11 -28.5t28 -12.5h112q16 0 27.5 12.5t11.5 28.5v782h274v-999h-249v51q-63 -72 -193 -71h-43q-254 0 -254 270zM272 1116l170 209h301l-268 -209h-203z" />
<glyph unicode="&#xfb;" d="M92 250v749h275v-782q0 -16 11 -28.5t28 -12.5h112q16 0 27.5 12.5t11.5 28.5v782h274v-999h-249v51q-63 -72 -193 -71h-43q-254 0 -254 270zM137 1108l170 217h307l170 -217h-202l-121 115l-121 -115h-203z" />
<glyph unicode="&#xfc;" d="M92 250v749h275v-782q0 -16 11 -28.5t28 -12.5h112q16 0 27.5 12.5t11.5 28.5v782h274v-999h-249v51q-63 -72 -193 -71h-43q-254 0 -254 270zM178 1207q0 48 35 83t83 35t82 -35t34 -83t-34 -81.5t-82 -33.5t-83 33.5t-35 81.5zM510 1207q0 48 35 83t83 35t81.5 -35 t33.5 -83t-33.5 -81.5t-81.5 -33.5t-83 33.5t-35 81.5z" />
<glyph unicode="&#xfd;" d="M92 315v684h275v-716q0 -16 11 -28.5t28 -12.5h112q16 0 27.5 12t11.5 29v716h274v-1075q0 -270 -253 -270h-205q-254 0 -254 270v33h266v-66q0 -16 11.5 -28.5t27.5 -12.5h94q16 0 27.5 12.5t11.5 28.5v203q-61 -49 -168 -49h-43q-254 0 -254 270zM272 1116l170 209h301 l-268 -209h-203z" />
<glyph unicode="&#xfe;" horiz-adv-x="899" d="M92 -326v1651h275v-354q66 49 168 49h43q254 0 253 -270v-500q0 -270 -253 -270h-43q-104 0 -168 47v-353h-275zM367 217q0 -16 11 -28.5t28 -12.5h112q16 0 27.5 12.5t11.5 28.5v565q0 16 -11 28.5t-28 12.5h-112q-16 0 -27.5 -12t-11.5 -29v-565z" />
<glyph unicode="&#xff;" d="M92 315v684h275v-716q0 -16 11 -28.5t28 -12.5h112q16 0 27.5 12t11.5 29v716h274v-1075q0 -270 -253 -270h-205q-254 0 -254 270v33h266v-66q0 -16 11.5 -28.5t27.5 -12.5h94q16 0 27.5 12.5t11.5 28.5v203q-61 -49 -168 -49h-43q-254 0 -254 270zM178 1228q0 48 35 83 t83 35t82 -35t34 -83t-34 -82t-82 -34t-83 34t-35 82zM510 1228q0 48 35 83t83 35t81.5 -35t33.5 -83t-33.5 -82t-81.5 -34t-83 34t-35 82z" />
<glyph unicode="&#x152;" horiz-adv-x="1761" d="M1093 0v1325h605v-233h-318v-312h297v-225h-297v-317h318v-238h-605zM102 250v825q0 270 254 271h273q254 0 254 -271v-825q0 -270 -254 -270h-273q-254 0 -254 270zM389 217q0 -16 11.5 -28.5t27.5 -12.5h129q16 0 27.5 12.5t11.5 28.5v893q0 16 -11.5 28.5t-27.5 12.5 h-129q-16 0 -27.5 -12.5t-11.5 -28.5v-893z" />
<glyph unicode="&#x153;" horiz-adv-x="1816" d="M1018 250v500q0 270 254 270h232q254 0 253 -270v-324h-464v-209q0 -16 11 -28.5t28 -12.5h112q16 0 27.5 12.5t11.5 28.5v111h274v-78q0 -270 -253 -270h-232q-254 0 -254 270zM1293 606h190v185q0 16 -11 28t-28 12h-112q-16 0 -27.5 -12t-11.5 -28v-185zM92 250v500 q0 270 254 270h232q254 0 253 -270v-500q0 -270 -253 -270h-232q-254 0 -254 270zM367 193q0 -16 11 -28.5t28 -12.5h112q16 0 27.5 12t11.5 29v616q0 16 -11 28.5t-28 12.5h-112q-16 0 -27.5 -12.5t-11.5 -28.5v-616z" />
<glyph unicode="&#x178;" horiz-adv-x="890" d="M159 1584q0 48 35 83t83 35t82 -35t34 -83t-34 -82t-82 -34t-83 34t-35 82zM491 1584q0 48 35 83t83 35t82 -35t34 -83t-34 -82t-82 -34t-83 34t-35 82zM14 1325h271l157 -553l158 553h270l-284 -842v-483h-287v483z" />
<glyph unicode="&#x2c6;" horiz-adv-x="794" d="M74 995l170 217h307l170 -217h-203l-121 115l-121 -115h-202z" />
<glyph unicode="&#x2dc;" horiz-adv-x="763" d="M47 977l2 18q8 100 67.5 151.5t134.5 51.5t159 -32.5t139 -32.5t108 61l56 -4l-2 -19q-8 -98 -68.5 -150t-142.5 -52h-19q-55 6 -130 34.5t-113 32.5q-84 0 -136 -63z" />
<glyph unicode="&#x2000;" horiz-adv-x="880" />
<glyph unicode="&#x2001;" horiz-adv-x="1763" />
<glyph unicode="&#x2002;" horiz-adv-x="880" />
<glyph unicode="&#x2003;" horiz-adv-x="1763" />
<glyph unicode="&#x2004;" horiz-adv-x="587" />
<glyph unicode="&#x2005;" horiz-adv-x="440" />
<glyph unicode="&#x2006;" horiz-adv-x="292" />
<glyph unicode="&#x2007;" horiz-adv-x="292" />
<glyph unicode="&#x2008;" horiz-adv-x="219" />
<glyph unicode="&#x2009;" horiz-adv-x="352" />
<glyph unicode="&#x200a;" horiz-adv-x="96" />
<glyph unicode="&#x2010;" horiz-adv-x="923" d="M115 489v220h698v-220h-698z" />
<glyph unicode="&#x2011;" horiz-adv-x="923" d="M115 489v220h698v-220h-698z" />
<glyph unicode="&#x2012;" horiz-adv-x="923" d="M115 489v220h698v-220h-698z" />
<glyph unicode="&#x2013;" horiz-adv-x="1024" d="M115 489v220h798v-220h-798z" />
<glyph unicode="&#x2014;" horiz-adv-x="2048" d="M115 489v220h1822v-220h-1822z" />
<glyph unicode="&#x2018;" horiz-adv-x="632" d="M57 1198h301l170 -209h-202z" />
<glyph unicode="&#x2019;" horiz-adv-x="452" d="M106 1325h236l-27 -424h-184z" />
<glyph unicode="&#x201c;" horiz-adv-x="770" d="M106 1325h236l-27 -424h-184zM428 1325h236l-27 -424h-184z" />
<glyph unicode="&#x201d;" horiz-adv-x="770" d="M106 1325h236l-27 -424h-184zM428 1325h236l-27 -424h-184z" />
<glyph unicode="&#x2026;" horiz-adv-x="1560" d="M1161 127q0 61 43 104t104.5 43t104.5 -43t43 -104t-43 -104t-104.5 -43t-104.5 43t-43 104zM641 127q0 61 43 104t104.5 43t104.5 -43t43 -104t-43 -104t-104.5 -43t-104.5 43t-43 104zM121 127q0 61 43 104t104.5 43t104.5 -43t43 -104t-43 -104t-104.5 -43t-104.5 43 t-43 104z" />
<glyph unicode="&#x202f;" horiz-adv-x="352" />
<glyph unicode="&#x2039;" horiz-adv-x="854" d="M102 522v209l695 375v-242l-471 -239l471 -240v-238z" />
<glyph unicode="&#x203a;" horiz-adv-x="854" d="M90 147v238l471 240l-471 239v242l694 -375v-209z" />
<glyph unicode="&#x205f;" horiz-adv-x="440" />
<glyph unicode="&#x2122;" horiz-adv-x="2203" d="M872 0v1075q0 270 254 271h152q150 0 213 -99q59 98 213 99h151q254 0 254 -271v-1075h-286v1100q0 16 -11.5 28.5t-27.5 12.5h-111q-16 0 -27.5 -12.5t-11.5 -28.5v-1100h-287v1100q0 16 -11 28.5t-27 12.5h-111q-16 0 -27.5 -12.5t-11.5 -28.5v-1100h-287zM27 1081v244 h716v-244h-215v-1081h-286v1081h-215z" />
<glyph unicode="&#xe000;" horiz-adv-x="1000" d="M0 1000h1000v-1000h-1000v1000z" />
<glyph unicode="&#xfb01;" horiz-adv-x="1071" d="M682 1231.5q0 62.5 45 106.5t106.5 44t105.5 -44t44 -107.5t-44 -106.5t-105.5 -43t-106.5 44t-45 106.5zM696 0v999h274v-999h-274zM92 0v1075q0 270 254 271h193v-189h-82q-45 0 -67.5 -20.5t-22.5 -77.5v-60h172v-206h-172v-793h-275z" />
<glyph unicode="&#xfb02;" horiz-adv-x="1026" d="M659 0v1325h275v-1325h-275zM92 0v1075q0 270 254 271h193v-189h-82q-45 0 -67.5 -20.5t-22.5 -77.5v-60h172v-206h-172v-793h-275z" />
<glyph unicode="&#xfb03;" horiz-adv-x="1638" d="M1250 1231.5q0 62.5 45 106.5t106.5 44t105.5 -44t44 -107.5t-44 -106.5t-105.5 -43t-106.5 44t-45 106.5zM1264 0v999h274v-999h-274zM659 0v1075q0 270 254 271h193v-189h-82q-45 0 -67.5 -20.5t-22.5 -77.5v-60h172v-206h-172v-793h-275zM92 0v1075q0 270 254 271h193 v-189h-82q-45 0 -67.5 -20.5t-22.5 -77.5v-60h172v-206h-172v-793h-275z" />
<glyph unicode="&#xfb04;" horiz-adv-x="1593" d="M1227 0v1325h275v-1325h-275zM659 0v1075q0 270 254 271h193v-189h-82q-45 0 -67.5 -20.5t-22.5 -77.5v-60h172v-206h-172v-793h-275zM92 0v1075q0 270 254 271h193v-189h-82q-45 0 -67.5 -20.5t-22.5 -77.5v-60h172v-206h-172v-793h-275z" />
</font>
</defs>
</svg>
